# xmcd
#
# Track frame offsets: 
#        150
#        11307
#        28342
#        51735
#        71292
#        88347
#        100667
#        111588
#        125242
#        144950
#        170837
#        189247
#        211492
#        238112
#        260394
#
# Disc length: 3817 seconds
#
# Revision: 0
# Processed by: cddbd v1.5.2PL0 Copyright (c) Steve Scherf et al.
# Submitted via: ExactAudioCopy v0.99pb5
#
DISCID=e10ee70f
DTITLE=Toby Walker - Lost and Found
DYEAR=2009
DGENRE=Blues
TTITLE0=Toby's Boogie Woogie
TTITLE1=Baseball Blues
TTITLE2=Bird Nest Bound
TTITLE3=You Didn't Want Me
TTITLE4=Sadie Green
TTITLE5=Jitterbub Swing
TTITLE6=Bentonia Breakdown
TTITLE7=Keep On Grumblin'
TTITLE8=Swing Bean
TTITLE9=Phonograph Blues
TTITLE10=Who's Gonna Be Your Sweet Man
TTITLE11=He's Got a Way With Women
TTITLE12=Spoonful
TTITLE13=I Want My Hands On It
TTITLE14=I Know You Rider
EXTD=
EXTT0=
EXTT1=
EXTT2=
EXTT3=
EXTT4=
EXTT5=
EXTT6=
EXTT7=
EXTT8=
EXTT9=
EXTT10=
EXTT11=
EXTT12=
EXTT13=
EXTT14=
PLAYORDER=
